# xmcd CD database file
#
# Track frame offsets:
#	150
#	20609
#	37710
#	53784
#	67556
#	83856
#	103441
#	117105
#	135098
#	155401
#	168983
#	182523
#
# Disc length: 2729 seconds
#
# Revision: 4
# Processed by: cddbd v1.5.2PL0 Copyright (c) Steve Scherf et al.
# Submitted via: CDex 1.51
#
DISCID=870aa70c
DTITLE=Cory Morrow - The Cory Morrow Band
DYEAR=1997
DGENRE=Country
TTITLE0=The Preacher
TTITLE1=Angela
TTITLE2=Love's A Mysterious Thing
TTITLE3=Texas Bound Train
TTITLE4=You Don't Really Love Me
TTITLE5=The Light On The Stage (Sing With Me)
TTITLE6=Nothing I Wouldn't Do
TTITLE7=I Wanna Go Home
TTITLE8=Runnin' Around On Me
TTITLE9=Let It Roll
TTITLE10=The Mercenary Song
TTITLE11=Will You Ever Know
EXTD=YEAR: 1997
EXTT0=
EXTT1=
EXTT2=
EXTT3=
EXTT4=
EXTT5=
EXTT6=
EXTT7=
EXTT8=
EXTT9=
EXTT10=
EXTT11=
PLAYORDER=
